PathFileType	4	(X/Y/Z)	/Users/itak/Documents/Research/Walk-IL/dataset/trc/00219_00009.trc
DataRate	CameraRate	NumFrames	NumMarkers	Units	OrigDataRate	OrigDataStartFrame	OrigNumFrames
100.000000	100.000000	4	53	mm	100.000000	359	479
Frame#	Time	RPSI			LPSI			L3			STRN			T10			C7			CLAV			RBAK			LBAK			LSHO			LUPA			LAEL			LAOL			LWTS			LWPS			LFRA			LIFD			LHPS			LHTS			RSHO			RUPA			RAEL			RAOL			RWTS			RWPS			RFRA			RIFD			RHTS			RHPS			RBHD			LFHD			RFHD			LBHD			LHIP			RHIP			RASI			LASI			LKNE			LTHI			LANK			LTIP			LTOE			LMT1			LMT5			LHEE			RKNE			RANK			RTIP			RTOE			RMT1			RMT5			RHEE			RTHI			
		X1	Y1	Z1	X2	Y2	Z2	X3	Y3	Z3	X4	Y4	Z4	X5	Y5	Z5	X6	Y6	Z6	X7	Y7	Z7	X8	Y8	Z8	X9	Y9	Z9	X10	Y10	Z10	X11	Y11	Z11	X12	Y12	Z12	X13	Y13	Z13	X14	Y14	Z14	X15	Y15	Z15	X16	Y16	Z16	X17	Y17	Z17	X18	Y18	Z18	X19	Y19	Z19	X20	Y20	Z20	X21	Y21	Z21	X22	Y22	Z22	X23	Y23	Z23	X24	Y24	Z24	X25	Y25	Z25	X26	Y26	Z26	X27	Y27	Z27	X28	Y28	Z28	X29	Y29	Z29	X30	Y30	Z30	X31	Y31	Z31	X32	Y32	Z32	X33	Y33	Z33	X34	Y34	Z34	X35	Y35	Z35	X36	Y36	Z36	X37	Y37	Z37	X38	Y38	Z38	X39	Y39	Z39	X40	Y40	Z40	X41	Y41	Z41	X42	Y42	Z42	X43	Y43	Z43	X44	Y44	Z44	X45	Y45	Z45	X46	Y46	Z46	X47	Y47	Z47	X48	Y48	Z48	X49	Y49	Z49	X50	Y50	Z50	X51	Y51	Z51	X52	Y52	Z52	X53	Y53	Z53	

360	3.59	284.3879699707031	1048.853271484375	-254.4383087158203	283.5189208984375	1059.5244140625	-135.0292205810547	283.8995056152344	1141.2900390625	-187.3334197998047	23.1467227935791	1311.803344726562	-172.2766723632812	281.0540466308594	1266.672485351562	-203.2047271728516	201.8599700927734	1524.11865234375	-199.5045776367188	43.50027084350586	1430.30517578125	-177.0842132568359	277.1616821289062	1388.945190429688	-280.5928039550781	236.9291839599609	1487.104858398438	-90.66403198242188	155.5905456542969	1484.173583984375	-22.5527229309082	201.0581512451172	1366.283203125	50.69678115844727	200.0457916259766	1154.48974609375	75.70458221435547	261.2341003417969	1139.575805664062	15.86328315734863	88.11787414550781	928.3320922851562	31.94751167297363	129.7519836425781	905.282958984375	102.3032913208008	177.4094390869141	1047.427612304688	90.94615173339844	70.77765655517578	734.2913208007812	32.32043838500977	105.7772750854492	818.430908203125	97.68013000488281	51.36127853393555	828.9280395507812	56.95408630371094	125.191520690918	1474.299926757812	-358.272216796875	138.0408477783203	1408.779907226562	-426.2037353515625	157.3416290283203	1127.898193359375	-462.5675659179688	204.47412109375	1121.508422851562	-379.9806518554688	27.93249320983887	914.7194213867188	-403.0447387695312	73.41159057617188	899.3771362304688	-472.5530395507812	130.5198364257812	1059.406127929688	-470.909912109375	15.42116641998291	721.0570678710938	-393.7612915039062	-11.81667518615723	793.1600341796875	-412.7154235839844	34.68422317504883	792.4473876953125	-467.8629455566406	156.9427490234375	1672.317626953125	-250.1619262695312	-32.23405838012695	1723.594360351562	-135.0141754150391	-43.88124084472656	1717.635620117188	-234.7057800292969	127.5102005004883	1686.636108398438	-113.8320999145508	180.9261169433594	1004.542419433594	6.483776092529297	190.89599609375	1000.847473144531	-361.0858764648438	90.748291015625	1045.345336914062	-327.0569763183594	82.17795562744141	1043.56689453125	-46.36605834960938	55.72670745849609	528.1834106445312	-18.04255867004395	89.80583190917969	669.022705078125	7.84370756149292	134.7820587158203	47.7317008972168	6.676254272460938	97.63236236572266	300.2314453125	3.374620914459229	-68.9493408203125	63.99673080444336	-72.0806884765625	2.379638195037842	51.00082015991211	-105.7123794555664	6.745885372161865	51.20102691650391	7.618259906768799	202.6852569580078	52.92650985717773	-37.03852081298828	152.3984832763672	510.9189147949219	-302.2858276367188	244.0421905517578	29.54682922363281	-249.5799865722656	149.7716979980469	391.7848510742188	-279.0348205566406	33.22652435302734	50.02281951904297	-218.6391906738281	84.34590911865234	45.46844863891602	-172.61083984375	135.1427459716797	31.18876266479492	-281.6068725585938	302.1140441894531	33.49189376831055	-185.0285797119141	132.5836181640625	775.8626098632812	-354.8880615234375	
361	3.6	285.703369140625	1048.684326171875	-254.5036010742188	284.6585388183594	1059.31396484375	-135.1084289550781	285.3267211914062	1141.110229492188	-187.2872924804688	24.78411483764648	1311.989501953125	-172.7115173339844	282.6939086914062	1266.526000976562	-203.0506286621094	203.8144378662109	1524.094116210938	-199.4227447509766	45.32322311401367	1430.473876953125	-177.4164276123047	279.1673583984375	1388.856323242188	-280.337646484375	238.6198425292969	1486.98779296875	-90.49669647216797	157.0891418457031	1484.125	-22.64190864562988	202.0187377929688	1366.18505859375	50.7983283996582	200.0915679931641	1154.378540039062	76.04035949707031	261.6448059082031	1139.217407226562	16.60820388793945	86.91073608398438	929.1417846679688	31.15277862548828	127.8344573974609	905.6696166992188	101.7852249145508	176.6118621826172	1047.467041015625	90.99494171142578	67.80728149414062	735.3306274414062	31.13729286193848	103.1098098754883	819.0232543945312	96.84651184082031	49.14365386962891	829.9846801757812	55.80100250244141	127.4491348266602	1474.38330078125	-358.4055480957031	140.4709930419922	1408.870849609375	-426.3062438964844	159.8763275146484	1127.97900390625	-462.5734252929688	206.7440643310547	1121.697265625	-379.9816589355469	31.03990173339844	914.2974853515625	-403.54833984375	76.64359283447266	899.2861328125	-473.0303039550781	133.2501525878906	1059.461181640625	-471.0188598632812	19.47535133361816	720.5277099609375	-394.5529174804688	-8.064860343933105	792.5529174804688	-413.4104309082031	38.36348342895508	792.1491088867188	-468.5457153320312	158.9195404052734	1672.453857421875	-250.19873046875	-30.24213981628418	1723.666748046875	-135.0492248535156	-41.88253784179688	1717.809692382812	-234.7543334960938	129.4488525390625	1686.662475585938	-113.8555221557617	181.7496337890625	1004.51416015625	6.379990577697754	192.3163146972656	1000.865783691406	-361.3463439941406	92.64859008789062	1045.453857421875	-327.3525695800781	83.19697570800781	1043.569580078125	-46.71602630615234	57.7786750793457	527.7568359375	-18.39598083496094	91.21197509765625	668.7991333007812	7.235035419464111	143.2272186279297	48.13835906982422	6.28240442276001	102.8613510131836	300.2083435058594	3.023859024047852	-61.21986389160156	63.12568664550781	-70.58918762207031	9.808029174804688	50.50261688232422	-104.9070053100586	15.30391025543213	50.71319580078125	8.398078918457031	210.7419281005859	53.90225601196289	-38.05709838867188	153.1979522705078	510.9784851074219	-302.5660095214844	244.0532379150391	29.54005813598633	-249.5726165771484	150.4030151367188	391.8764953613281	-279.2461547851562	33.2214469909668	49.99639511108398	-218.6690216064453	84.35330963134766	45.47597122192383	-172.638916015625	135.1481323242188	31.18218612670898	-281.6103210449219	302.1053161621094	33.42388153076172	-184.9960784912109	133.7515869140625	776.0198974609375	-355.3499755859375	
362	3.61	286.9316101074219	1048.519287109375	-254.5422515869141	285.7231140136719	1059.098999023438	-135.1626739501953	286.6551208496094	1140.888671875	-187.2016448974609	26.31235122680664	1312.156127929688	-173.1473846435547	284.2508239746094	1266.350463867188	-202.8400573730469	205.7144927978516	1524.054443359375	-199.29345703125	47.07170104980469	1430.619506835938	-177.7404632568359	281.1342163085938	1388.740600585938	-280.0023498535156	240.2220916748047	1486.852661132812	-90.26846313476562	158.4826354980469	1484.0546875	-22.68876075744629	202.8396911621094	1366.0810546875	50.95434188842773	200.0529022216797	1154.274047851562	76.50193786621094	261.9909057617188	1138.874267578125	17.51266098022461	85.79458618164062	929.88818359375	30.45109748840332	125.9585266113281	906.0439453125	101.3939743041992	175.750732421875	1047.527465820312	91.17727661132812	64.99661254882812	736.3388061523438	30.06235504150391	100.5524063110352	819.5984497070312	96.15138244628906	47.04111099243164	830.9697875976562	54.72860336303711	129.6962280273438	1474.443969726562	-358.5095520019531	142.9221649169922	1408.931884765625	-426.3705749511719	162.4518432617188	1128.032470703125	-462.5368957519531	209.0227661132812	1121.852783203125	-379.8765563964844	34.1234130859375	913.8704833984375	-404.0704650878906	79.88607025146484	899.182373046875	-473.4963073730469	136.0205993652344	1059.4931640625	-471.0966491699219	23.34819221496582	720.028564453125	-395.3782348632812	-4.38182258605957	791.9776611328125	-414.1446533203125	42.01935577392578	791.8614501953125	-469.23583984375	160.8493499755859	1672.575317382812	-250.2230529785156	-28.2909049987793	1723.743041992188	-135.0754089355469	-39.925048828125	1717.982788085938	-234.8009948730469	131.3372497558594	1686.679565429688	-113.8620300292969	182.5328979492188	1004.419128417969	6.293593883514404	193.6323547363281	1000.893615722656	-361.5761108398438	94.56597900390625	1045.544067382812	-327.5436401367188	84.16679382324219	1043.53955078125	-46.96302032470703	59.78384017944336	527.2987060546875	-18.75014877319336	92.59299468994141	668.5267944335938	6.653450965881348	151.6844024658203	48.63769912719727	5.845131874084473	108.0568389892578	300.2083129882812	2.638849496841431	-53.53890228271484	62.29428100585938	-68.96516418457031	17.1347827911377	50.03616333007812	-104.0326309204102	23.8825798034668	50.3159294128418	9.242397308349609	218.7309112548828	54.92312622070312	-39.18248748779297	153.9813385009766	511.0100402832031	-302.8340759277344	244.0682220458984	29.52606582641602	-249.5684814453125	151.0109710693359	391.9641723632812	-279.4556579589844	33.21877670288086	49.98221588134766	-218.7085723876953	84.36232757568359	45.49345779418945	-172.6739196777344	135.1539306640625	31.17024993896484	-281.6184997558594	302.1005249023438	33.35580825805664	-184.9724273681641	134.8678894042969	776.2139282226562	-355.8121337890625	
363	3.62	288.07568359375	1048.359497070312	-254.5595245361328	286.7113342285156	1058.88623046875	-135.1955413818359	287.8833618164062	1140.630737304688	-187.0811004638672	27.73786354064941	1312.305053710938	-173.5754852294922	285.7247619628906	1266.152709960938	-202.576904296875	207.5591583251953	1524.000366210938	-199.1185302734375	48.73221206665039	1430.745971679688	-178.0597534179688	283.0581359863281	1388.601196289062	-279.5911560058594	241.7358856201172	1486.702880859375	-89.98432922363281	159.7730407714844	1483.97119140625	-22.69562530517578	203.5266418457031	1365.980834960938	51.15932846069336	199.9290924072266	1154.185546875	77.07863616943359	262.2711791992188	1138.552124023438	18.57003402709961	84.76716613769531	930.5639038085938	29.83338737487793	124.1244125366211	906.4081420898438	101.123779296875	174.8320465087891	1047.612182617188	91.49418640136719	62.38386154174805	737.29345703125	29.10651588439941	98.11386108398438	820.154541015625	95.59506988525391	45.05803680419922	831.88330078125	53.72800827026367	131.9255523681641	1474.48291015625	-358.5838928222656	145.3872985839844	1408.962036132812	-426.396240234375	165.0660400390625	1128.062377929688	-462.4596862792969	211.3073272705078	1121.971557617188	-379.6685180664062	37.16352081298828	913.4483032226562	-404.611572265625	83.12960052490234	899.0684814453125	-473.9486999511719	138.8248901367188	1059.505126953125	-471.1447143554688	27.03386878967285	719.5656127929688	-396.2310791015625	-0.8035009503364563	791.4407348632812	-414.9221801757812	45.64079666137695	791.5895385742188	-469.9303283691406	162.7338562011719	1672.682495117188	-250.2323150634766	-26.38899230957031	1723.827880859375	-135.1002655029297	-38.00905609130859	1718.158813476562	-234.8488311767578	133.1726531982422	1686.68994140625	-113.8529663085938	183.2821044921875	1004.264221191406	6.218113422393799	194.8473510742188	1000.932006835938	-361.7751159667969	96.47061920166016	1045.618896484375	-327.6394348144531	85.07234954833984	1043.483032226562	-47.10612869262695	61.75027847290039	526.8125610351562	-19.09609794616699	93.95198822021484	668.2122802734375	6.093832492828369	160.0984039306641	49.21744537353516	5.354246139526367	113.1981887817383	300.2294006347656	2.222258567810059	-45.94115447998047	61.5020866394043	-67.24868011474609	24.33320808410645	49.59582901000977	-103.1114807128906	32.41691589355469	50.00380325317383	10.11942481994629	226.6000518798828	55.9774284362793	-40.40788650512695	154.7434997558594	511.0157165527344	-303.0861511230469	244.0859985351562	29.5068244934082	-249.5678863525391	151.5829620361328	392.043701171875	-279.6620788574219	33.21718215942383	49.97570037841797	-218.7528076171875	84.37232971191406	45.51870727539062	-172.7131042480469	135.1602172851562	31.15392875671387	-281.6304321289062	302.0999450683594	33.291748046875	-184.9580078125	135.9120788574219	776.4229125976562	-356.2524719238281	
